<mxfile host="app.diagrams.net" modified="2021-05-11T01:02:54.185Z" agent="5.0 (Windows NT 10.0; Win64; x64) AppleWebKit/537.36 (KHTML, like Gecko) Chrome/90.0.4430.93 Safari/537.36" etag="8YIqRPo4S5IEzcQKbHiO" version="14.6.11" type="github">
  <diagram id="cn-x0yzuyoAJZYk_1bYL" name="Page-1">
    <mxGraphModel dx="457" dy="784" grid="1" gridSize="10" guides="1" tooltips="1" connect="1" arrows="1" fold="1" page="1" pageScale="1" pageWidth="850" pageHeight="1100" math="0" shadow="0">
      <root>
        <mxCell id="0" />
        <mxCell id="1" parent="0" />
        <mxCell id="avcI6EamAN1Am9DWzyY5-2" value="Horizontal Container" style="swimlane;horizontal=0;" vertex="1" parent="1">
          <mxGeometry x="150" y="60" width="200" height="200" as="geometry" />
        </mxCell>
      </root>
    </mxGraphModel>
  </diagram>
</mxfile>
